<?xml version="1.0" encoding="iso-8859-1"?>
<!-- Generator: Adobe Illustrator 19.0.0, SVG Export Plug-In . SVG Version: 6.00 Build 0)  -->
<svg version="1.1" id="Layer_1" xmlns="http://www.w3.org/2000/svg" x="0px" y="0px"
     viewBox="0 0 486.354 486.354" style="enable-background:new 0 0 486.354 486.354;" xml:space="preserve">
<g id="XMLID_1518_">
	<g id="XMLID_661_">
		<rect x="7.599" y="136.787" style="fill:#F7931E;" width="471.156" height="212.78"/>
	</g>
    <g id="XMLID_1153_">
		<rect x="7.599" y="136.787" style="fill:#FBB03B;" width="235.578" height="212.78"/>
	</g>
    <g id="XMLID_1313_">
		<rect x="12.433" y="144.386" style="fill:#FFFFFF;" width="17.964" height="197.582"/>
	</g>
    <g id="XMLID_1231_">
		<rect x="37.996" y="167.184" style="fill:#E9483D;" width="410.362" height="151.986"/>
	</g>
    <g id="XMLID_1245_">
		<rect x="37.996" y="167.184" style="fill:#ED6D64;" width="205.181" height="151.986"/>
	</g>
    <g id="XMLID_1285_">
		<circle style="fill:#FBB03B;" cx="243.177" cy="243.177" r="83.592"/>
	</g>
    <g id="XMLID_676_">
		<g id="XMLID_681_">
			<path style="fill:#1D1D1B;" d="M240.567,292.573v-8.664c-10.842-1.111-20.574-5.419-29.2-12.943l8.664-10.326
				c6.65,5.776,13.494,9.224,20.535,10.326v-23.027c-8.944-2.135-15.489-4.936-19.642-8.423c-4.153-3.477-6.235-8.645-6.235-15.493
				c0-6.839,2.395-12.441,7.182-16.788c4.786-4.356,11.021-6.732,18.695-7.128v-5.931h7.597v6.056
				c8.703,0.628,16.932,3.603,24.689,8.896l-7.718,10.924c-5.221-3.719-10.881-6.018-16.971-6.887v22.313h0.357
				c9.099,2.135,15.783,5.032,20.057,8.664c4.274,3.642,6.409,8.925,6.409,15.851c0,6.926-2.453,12.557-7.36,16.913
				c-4.907,4.347-11.393,6.723-19.463,7.119v8.548H240.567z M232.197,215.956c-2.014,1.777-3.023,3.999-3.023,6.645
				c0,2.656,0.787,4.743,2.371,6.288c1.584,1.546,4.588,3.033,9.022,4.453v-20.535C237.007,213.126,234.216,214.179,232.197,215.956
				z M257.185,268c2.212-1.816,3.323-4.115,3.323-6.887c0-2.762-0.874-4.965-2.613-6.587c-1.739-1.613-4.984-3.139-9.732-4.569
				v21.366C251.96,270.926,254.969,269.825,257.185,268z"/>
		</g>
	</g>
    <g id="XMLID_325_">
		<rect x="75.993" y="235.578" style="fill:#1D1D1B;" width="15.199" height="15.199"/>
	</g>
    <g id="XMLID_327_">
		<rect x="395.163" y="235.578" style="fill:#1D1D1B;" width="15.199" height="15.199"/>
	</g>
    <g>
		<path style="fill:#1D1D1B;"
              d="M0,132.987v220.381h486.354V132.987H0z M471.156,338.168H15.198V148.186h455.958V338.168z"/>
        <path style="fill:#1D1D1B;" d="M243.177,330.57c12.683,0,24.742-2.719,35.63-7.6h177.15V163.384h-177.15
			c-10.887-4.881-22.946-7.6-35.63-7.6s-24.742,2.719-35.63,7.6H30.397V322.97h177.151
			C218.435,327.851,230.494,330.57,243.177,330.57z M440.759,178.583v129.188H301.981c15.796-14.393,26.306-34.487,28.254-56.994
			h49.73v-15.199h-49.73c-1.948-22.507-12.458-42.601-28.254-56.994L440.759,178.583L440.759,178.583z M315.371,243.177
			c0,39.808-32.386,72.193-72.193,72.193s-72.193-32.386-72.193-72.193s32.386-72.193,72.193-72.193S315.371,203.37,315.371,243.177
			z M45.595,307.771V178.583h138.779c-15.796,14.393-26.306,34.487-28.254,56.994h-49.73v15.199h49.73
			c1.948,22.507,12.458,42.601,28.254,56.994H45.595V307.771z"/>
	</g>
</g>
    <g>
</g>
    <g>
</g>
    <g>
</g>
    <g>
</g>
    <g>
</g>
    <g>
</g>
    <g>
</g>
    <g>
</g>
    <g>
</g>
    <g>
</g>
    <g>
</g>
    <g>
</g>
    <g>
</g>
    <g>
</g>
    <g>
</g>
</svg>
